<?xml version = "1.0" encoding = "UTF-8"?>
<svg  version = "1.1" viewBox  = "0 0 2000 1875" xmlns = "http://www.w3.org/2000/svg">
<g>
<svg width = "2e3" height = "1875" data-background-color = "#0080ff" viewBox = "0 0 384 360" xmlns = "http://www.w3.org/2000/svg" xmlns:xlink = "http://www.w3.org/1999/xlink">
<g>
<svg width = "384" height = "360" viewBox = "0 0 384 360">
<svg/>
<svg  width     = "384" height                                                                                                                                                                                                                                                                                                                                                                                                                                                                                                                                          = "360" viewBox    = "0 0 384 360">
<path d         = "m362.35 145.44v-42.24c0-21.12-19.163-38.402-42.587-38.402h-93.208c-15.198 0-28.337-8.831-34.559-21.646-6.222 12.81-19.36 21.646-34.559 21.646h-93.208c-23.424 0-42.587 17.282-42.587 38.402v42.24c0 15.198-8.831 28.337-21.646 34.559 12.81 6.222 21.646 19.36 21.646 34.559v42.24c0 21.12 19.163 38.402 42.587 38.402h93.208c15.198 0 28.337 8.831 34.559 21.646 6.222-12.81 19.36-21.646 34.559-21.646h93.208c23.424 0 42.587-17.282 42.587-38.402v-42.24c0-15.198 8.831-28.337 21.646-34.559-12.81-6.222-21.646-19.36-21.646-34.559z" font-family = "none" font-size = "none" font-weight = "none" stroke-dasharray = "" stroke-miterlimit = "10" text-anchor = "none" style = "mix-blend-mode:normal" data-fill-palette-color = "tertiary" xmlns = "http://www.w3.org/2000/svg"/>
<g    transform = "translate(112.61 99)">
<svg  width     = "158.79" height                                                                                                                                                                                                                                                                                                                                                                                                                                                                                                                                       = "162" viewBox    = "0 0 158.78829011897272 162">
<svg  width     = "158.79" height                                                                                                                                                                                                                                                                                                                                                                                                                                                                                                                                       = "162" viewBox    = "0 0 158.78829011897272 162">
<svg  width     = "158.79" height                                                                                                                                                                                                                                                                                                                                                                                                                                                                                                                                       = "162" viewBox    = "0 0 230.4 235.06015444863255">
<svg  width     = "230.4" height                                                                                                                                                                                                                                                                                                                                                                                                                                                                                                                                        = "235.06" viewBox = "0 0 230.4 235.06015444863255">
<svg  width     = "230.4" height                                                                                                                                                                                                                                                                                                                                                                                                                                                                                                                                        = "235.06" viewBox = "0 0 230.4 235.06015444863255">
<svg width="230.4" height="152.94" viewBox="0 0 230.4 152.93602305475503">
<g>
<svg width="230.4" height="152.94" data-palette-color="#0080ff" viewBox="2 -34.150001525878906 52.04999923706055 34.55000305175781">
<path class="undefined-text-0" d="m28.15-9.05v7.55q-3.05 1.9-8.8 1.9-7.4 0-12.37-4.78-4.98-4.77-4.98-12.37 0-7.7 4.83-12.55 4.82-4.85 12.57-4.85 5.7 0 8.75 1.9v7.4q-3.75-2.3-8.35-2.3-4.05 0-6.8 2.82-2.75 2.83-2.75 7.58 0 4.65 2.75 7.37 2.75 2.73 7.1 2.73 4.7 0 8.05-2.4zm25.9 2.3v6.75h-20.15v-33.7h7.7v26.95h12.45z" fill="#fff" data-fill-palette-color="quaternary"/>
</svg>
</g>
</svg>
<g transform="translate(0 189.04)">
<svg width="230.4" height="46.02" viewBox="0 0 230.4 46.019606815203154">
<g>
<svg width="230.4" height="46.02" data-palette-color="#0080ff" viewBox="3.299999952316284 -37.70000076293945 190.739990234375 38.10000228881836">
<path class="undefined-text-1" d="m29.4-30.35q0 1-0.6 1.6t-1.47 0.6q-0.88 0-1.28-0.15 0.05-0.25 0.05-0.45 0-1.65-1.75-2.98-1.75-1.32-5.25-1.32-4.85 0-8.52 3.97-3.68 3.98-3.68 11.23t3.2 11.27q3.2 4.03 8.9 4.03 2.95 0 5.48-1.15 2.52-1.15 4.12-2.75 0.8 0.1 0.8 1.2 0 1.6-3.35 3.62-3.35 2.03-7.95 2.03-6.3 0-10.55-4.78-4.25-4.77-4.25-12.92t4.88-13.43q4.87-5.27 11.82-5.27 4.05 0 6.73 1.67 2.67 1.68 2.67 3.98zm23.67 9.97q-2.47-2.67-6.2-2.67-3.72 0-5.87 2.45t-2.15 7.15q0 5.9 2.52 8.62 2.53 2.73 6.25 2.73 3.73 0 5.83-2.5t2.1-7.15q0-5.95-2.48-8.63zm-14.05-1.82q3.48-3.4 8.23-3.4t8.17 3.45q3.43 3.45 3.43 9.57 0 6.13-3.43 9.55-3.42 3.43-8.17 3.43t-8.23-3.43q-3.47-3.42-3.47-9.6 0-6.17 3.47-9.57zm42.73 12.75v-11.05q-2.6-2.35-6.08-2.35-3.47 0-5.9 2.85-2.42 2.85-2.42 7.77 0 4.93 2.12 7.38 2.13 2.45 5.18 2.45t4.75-1.7 2.35-5.35zm3.2-25.45v32.35q0 1.1 1.15 1.5-0.8 1.45-2.1 1.45-2.25 0-2.25-2.85v-2.35q-2.25 5.2-7.6 5.2-4 0-7.13-3.35-3.12-3.35-3.12-9.3t3.32-9.65q3.33-3.7 7.48-3.7t7.05 2.15v-11.25q0-1.15-1.15-1.6 0.7-1.4 2.1-1.4 2.25 0 2.25 2.8zm10.64 20.55 10.45-0.75q2.1-0.15 2.1-2.47 0-2.33-1.4-3.91-1.4-1.57-3.6-1.57-2.95 0-5.05 2.32-2.1 2.33-2.5 6.38zm-0.1 1.85q-0.05 5.15 2.23 7.65 2.27 2.5 6.3 2.5 4.02 0 6.67-2.5 0.6 0.35 0.6 1.15 0 1.45-2.27 2.77-2.28 1.33-5.43 1.33-5 0-8.27-3.23-3.28-3.22-3.28-9.07t3.55-9.78q3.55-3.92 8-3.92 3.55 0 5.75 2.47 2.2 2.48 2.2 5.68 0 2.2-1.27 3.32-1.28 1.13-4.08 1.18l-10.7 0.35v0.1zm22.9 6.45v-26.95q0-1.15-1.15-1.55 0.75-1.45 2.15-1.45 2.2 0 2.2 2.85v27.2q0 1.8 0.85 2.57 0.85 0.78 2.85 0.78h9q2.55 0 3.7-2.1 0.65 0.15 1.08 0.7 0.42 0.55 0.42 1.15 0 2.85-5.3 2.85h-8.75q-3.6 0-5.32-1.43-1.73-1.42-1.73-4.62zm29.95-0.2q0 3.85 4.3 3.85t7.15-3.8v-6.25q-5.8 0.3-8.63 2-2.82 1.7-2.82 4.2zm14.65-11.55v13.8q0 2.6 2.35 2.7-0.65 1.7-2.25 1.7-3.3 0-3.3-4.25-2.9 4.25-7.9 4.25-3 0-4.98-1.7-1.97-1.7-1.97-4.65 0-3.7 3.65-5.95t11.2-2.5v-2.55q0-3.5-1.2-5.13-1.2-1.62-3.9-1.62t-4 1.05-1.3 2.32q0 1.28 0.65 1.93-0.85 0.55-1.8 0.55t-1.63-0.6q-0.67-0.6-0.67-1.7 0-2.25 2.5-3.85t6.3-1.6 6.02 2.12q2.23 2.13 2.23 5.68zm19.05 15.15q4.05 0 6.35-2.78 2.3-2.77 2.3-7.45 0-4.67-2.28-7.22-2.27-2.55-5.62-2.55-4.9 0-7.25 4.8l-0.05 9.65q0 2.7 1.7 4.12 1.7 1.43 4.85 1.43zm-6.45-32.25-0.05 13.25q2.75-3.95 7.37-3.95 4.63 0 7.88 3.22 3.25 3.23 3.25 9.23t-3.5 9.75q-3.55 3.75-8.4 3.75t-7.35-2.33q-2.5-2.32-2.5-6.22l0.1-26.5q0-0.7-0.25-1.03-0.25-0.32-0.9-0.57 0.8-1.4 2.15-1.4 2.2 0 2.2 2.8z" fill="#fff" data-fill-palette-color="quaternary"/>
</svg>
</g>
</svg>
</g>
</svg>
</svg>
</svg>
</svg>
</svg>
</g>
</svg>
</svg>
<rect width="384" height="360" fill="none" visibility="hidden"/>
</g>
</svg>
</g>
</svg>

